<svg width="404" height="553" viewBox="0 0 404 553" fill="none" xmlns="http://www.w3.org/2000/svg">
<path d="M370.209 181.868C420.151 231.81 454.75 287.603 470.333 337.416C485.924 387.255 482.444 430.965 456.476 456.933C430.509 482.9 386.798 486.38 336.96 470.79C287.146 455.207 231.353 420.608 181.412 370.666C131.47 320.724 96.8701 264.931 81.2875 215.118C65.6969 165.279 69.177 121.569 95.1445 95.6012C121.112 69.6337 164.822 66.1536 214.661 81.7442C264.474 97.3268 320.267 131.926 370.209 181.868Z" stroke="#737373"/>
<path d="M370.17 370.17C320.229 420.112 264.436 454.712 214.622 470.294C164.784 485.885 121.073 482.405 95.1059 456.437C69.1383 430.47 65.6583 386.76 81.2489 336.921C96.8315 287.108 131.431 231.315 181.373 181.373C231.315 131.431 287.108 96.8315 336.921 81.2488C386.76 65.6582 430.47 69.1383 456.437 95.1059C482.405 121.073 485.885 164.783 470.294 214.622C454.712 264.436 420.112 320.229 370.17 370.17Z" stroke="#737373"/>
</svg>
