<svg width="16" height="16" fill="none" xmlns="http://www.w3.org/2000/svg"><g clip-path="url(#a)"><path d="M15.69 9.817a1.327 1.327 0 0 0-1.15-.477 7.996 7.996 0 0 0-5.873 3.318V9.274A4.004 4.004 0 0 0 12 5.334c0-1.862-1.295-3.435-2.563-4.728a2.057 2.057 0 0 0-2.874 0C5.295 1.9 4 3.472 4 5.334a4.004 4.004 0 0 0 3.333 3.94v3.384A7.996 7.996 0 0 0 1.461 9.34a1.328 1.328 0 0 0-1.15.477 1.314 1.314 0 0 0-.263 1.195C1.408 15.904 7.728 16 7.996 16h.008c.267 0 6.59-.096 7.949-4.988a1.318 1.318 0 0 0-.263-1.195ZM5.333 5.334c0-1.77 2.212-3.813 2.226-3.824-.244.624-1.764 4.424-.226 4.49A.667.667 0 0 0 8 5.334c.05-1.186.335-2.35.838-3.425.954 1.02 1.829 2.194 1.829 3.425a2.667 2.667 0 0 1-5.334 0Zm-3.996 5.333a6.845 6.845 0 0 1 5.642 3.909c-1.665-.231-4.846-1.042-5.642-3.909Zm7.693 3.907a6.92 6.92 0 0 1 5.637-3.92c-.796 2.868-3.97 3.687-5.637 3.92Z" fill="#fff"/></g><defs><clipPath id="a"><path fill="#fff" d="M0 0h16v16H0z"/></clipPath></defs></svg>