<svg width="56" height="56" fill="none" xmlns="http://www.w3.org/2000/svg"><path fill-rule="evenodd" clip-rule="evenodd" d="M55.998 27.998s.332-12.866-7.4-20.597C40.869-.329 28.003.002 28.003.002S28 .068 28 .194V.067l-.002-.065S15.132-.33 7.4 7.401C-.329 15.131.002 27.998.002 27.998s12.866.332 20.597-7.4C27.665 13.534 27.996 2.178 28 .277c.005 1.9.335 13.257 7.401 20.323 7.73 7.73 20.597 7.399 20.597 7.399ZM7.4 48.598C-.329 40.869.002 28.003.002 28.003s12.866-.332 20.597 7.4c7.066 7.065 7.397 18.422 7.401 20.322.005-1.9.335-13.257 7.401-20.323 7.73-7.73 20.597-7.399 20.597-7.399s.332 12.866-7.4 20.597c-7.73 7.73-20.596 7.399-20.596 7.399S28 55.932 28 55.806c0 .126-.002.192-.002.192s-12.866.332-20.597-7.4Z" fill="#fff"/></svg>