<svg width="56" height="56" viewBox="0 0 56 56" fill="none" xmlns="http://www.w3.org/2000/svg">
<rect x="1" y="1" width="54" height="54" rx="19" stroke="white" stroke-width="2"/>
<g clip-path="url(#clip0_26_562)">
<path d="M20.6667 24H35.3333C35.5101 24 35.6797 23.9298 35.8047 23.8048C35.9298 23.6797 36 23.5102 36 23.3334C36 23.1565 35.9298 22.987 35.8047 22.8619C35.6797 22.7369 35.5101 22.6667 35.3333 22.6667H20.6667C20.4899 22.6667 20.3203 22.7369 20.1953 22.8619C20.0702 22.987 20 23.1565 20 23.3334C20 23.5102 20.0702 23.6797 20.1953 23.8048C20.3203 23.9298 20.4899 24 20.6667 24Z" fill="white"/>
<path d="M35.3334 26H26C25.8232 26 25.6537 26.0702 25.5286 26.1953C25.4036 26.3203 25.3334 26.4899 25.3334 26.6667C25.3334 26.8435 25.4036 27.013 25.5286 27.1381C25.6537 27.2631 25.8232 27.3333 26 27.3333H35.3334C35.5102 27.3333 35.6798 27.2631 35.8048 27.1381C35.9298 27.013 36 26.8435 36 26.6667C36 26.4899 35.9298 26.3203 35.8048 26.1953C35.6798 26.0702 35.5102 26 35.3334 26Z" fill="white"/>
<path d="M35.3334 32.6667H26C25.8232 32.6667 25.6537 32.7369 25.5286 32.8619C25.4036 32.9869 25.3334 33.1565 25.3334 33.3333C25.3334 33.5101 25.4036 33.6797 25.5286 33.8047C25.6537 33.9298 25.8232 34 26 34H35.3334C35.5102 34 35.6798 33.9298 35.8048 33.8047C35.9298 33.6797 36 33.5101 36 33.3333C36 33.1565 35.9298 32.9869 35.8048 32.8619C35.6798 32.7369 35.5102 32.6667 35.3334 32.6667Z" fill="white"/>
<path d="M35.3333 29.3333H20.6667C20.4899 29.3333 20.3203 29.4036 20.1953 29.5286C20.0702 29.6536 20 29.8232 20 30C20 30.1768 20.0702 30.3464 20.1953 30.4714C20.3203 30.5964 20.4899 30.6667 20.6667 30.6667H35.3333C35.5101 30.6667 35.6797 30.5964 35.8047 30.4714C35.9298 30.3464 36 30.1768 36 30C36 29.8232 35.9298 29.6536 35.8047 29.5286C35.6797 29.4036 35.5101 29.3333 35.3333 29.3333Z" fill="white"/>
</g>
<defs>
<clipPath id="clip0_26_562">
<rect width="16" height="16" fill="white" transform="translate(20 20)"/>
</clipPath>
</defs>
</svg>
