<svg width="16" height="16" viewBox="0 0 16 16" fill="none" xmlns="http://www.w3.org/2000/svg">
<g clip-path="url(#clip0_11253_53)">
<path d="M9.66652 4.66661C9.04544 4.65695 8.44594 4.89435 7.99985 5.32661C7.65689 5.00635 7.22685 4.79472 6.76387 4.71835C6.30088 4.64199 5.82566 4.7043 5.39801 4.89745C4.97037 5.09061 4.60943 5.40596 4.36064 5.80381C4.11184 6.20166 3.98631 6.66423 3.99985 7.13328C3.99985 9.30394 7.24919 11.6239 7.61985 11.8806C7.73145 11.958 7.86403 11.9995 7.99985 11.9995C8.13568 11.9995 8.26826 11.958 8.37985 11.8806C8.75052 11.6239 11.9999 9.30394 11.9999 7.13328C12.0164 6.49708 11.7801 5.88027 11.3427 5.41794C10.9054 4.95561 10.3027 4.68544 9.66652 4.66661ZM7.99985 10.5079C6.83919 9.62127 5.33319 8.13461 5.33319 7.13328C5.28252 5.79594 7.27519 5.53328 7.33319 6.96928V7.33328C7.33319 7.51009 7.40343 7.67966 7.52845 7.80468C7.65347 7.9297 7.82304 7.99994 7.99985 7.99994C8.17667 7.99994 8.34623 7.9297 8.47126 7.80468C8.59628 7.67966 8.66652 7.51009 8.66652 7.33328V6.96928C8.72452 5.53461 10.7172 5.79594 10.6665 7.13328C10.6665 8.13328 9.16052 9.62127 7.99985 10.5079ZM8.55719 0.0186075C7.41434 -0.0612538 6.26767 0.105275 5.19475 0.506929C4.12184 0.908582 3.1477 1.53599 2.33825 2.34671C1.52879 3.15743 0.902906 4.13254 0.502927 5.20608C0.102948 6.27963 -0.061791 7.42655 0.0198538 8.56927C0.313187 12.8053 4.05452 15.9999 8.72185 15.9999H12.6665C13.5503 15.9989 14.3975 15.6474 15.0224 15.0225C15.6473 14.3976 15.9988 13.5503 15.9999 12.6666V8.22661C16.0246 6.17162 15.271 4.18333 13.8906 2.66089C12.5101 1.13844 10.6048 0.194518 8.55719 0.0186075ZM14.6665 12.6666C14.6665 13.197 14.4558 13.7058 14.0807 14.0808C13.7057 14.4559 13.197 14.6666 12.6665 14.6666H8.72185C4.69919 14.6666 1.59985 12.0666 1.34985 8.47727C1.28141 7.52461 1.41847 6.56836 1.75175 5.67328C2.08503 4.77819 2.60675 3.96517 3.28159 3.28926C3.95642 2.61335 4.76861 2.09034 5.66317 1.75563C6.55772 1.42093 7.51375 1.28235 8.46652 1.34927C10.1775 1.50063 11.7678 2.29388 12.9179 3.56964C14.068 4.84541 14.6927 6.50915 14.6665 8.22661V12.6666Z" fill="white"/>
</g>
<defs>
<clipPath id="clip0_11253_53">
<rect width="16" height="16" fill="white"/>
</clipPath>
</defs>
</svg>
