<svg width="16" height="16" viewBox="0 0 16 16" fill="none" xmlns="http://www.w3.org/2000/svg">
<g clip-path="url(#clip0_11253_5)">
<path d="M11.3334 9.33332C11.3334 9.51013 11.2632 9.6797 11.1382 9.80472C11.0131 9.92975 10.8436 9.99998 10.6668 9.99998H5.33343C5.15662 9.99998 4.98705 9.92975 4.86203 9.80472C4.737 9.6797 4.66677 9.51013 4.66677 9.33332C4.66677 9.15651 4.737 8.98694 4.86203 8.86191C4.98705 8.73689 5.15662 8.66665 5.33343 8.66665H10.6668C10.8436 8.66665 11.0131 8.73689 11.1382 8.86191C11.2632 8.98694 11.3334 9.15651 11.3334 9.33332ZM8.66677 11.3333H5.33343C5.15662 11.3333 4.98705 11.4036 4.86203 11.5286C4.737 11.6536 4.66677 11.8232 4.66677 12C4.66677 12.1768 4.737 12.3464 4.86203 12.4714C4.98705 12.5964 5.15662 12.6667 5.33343 12.6667H8.66677C8.84358 12.6667 9.01315 12.5964 9.13817 12.4714C9.2632 12.3464 9.33343 12.1768 9.33343 12C9.33343 11.8232 9.2632 11.6536 9.13817 11.5286C9.01315 11.4036 8.84358 11.3333 8.66677 11.3333ZM14.6668 6.98998V12.6667C14.6657 13.5504 14.3142 14.3976 13.6893 15.0225C13.0644 15.6474 12.2172 15.9989 11.3334 16H4.66677C3.78304 15.9989 2.93581 15.6474 2.31091 15.0225C1.68602 14.3976 1.33449 13.5504 1.33343 12.6667V3.33332C1.33449 2.44959 1.68602 1.60236 2.31091 0.977465C2.93581 0.352573 3.78304 0.00104342 4.66677 -1.51518e-05H7.67677C8.28985 -0.0015931 8.89716 0.118377 9.46358 0.352958C10.03 0.587539 10.5443 0.932077 10.9768 1.36665L13.2994 3.69065C13.7343 4.12281 14.079 4.63696 14.3137 5.2033C14.5484 5.76965 14.6684 6.37693 14.6668 6.98998ZM10.0341 2.30932C9.82429 2.10609 9.58872 1.93127 9.33343 1.78932V4.66665C9.33343 4.84346 9.40367 5.01303 9.5287 5.13806C9.65372 5.26308 9.82329 5.33332 10.0001 5.33332H12.8774C12.7354 5.07811 12.5603 4.84275 12.3568 4.63332L10.0341 2.30932ZM13.3334 6.98998C13.3334 6.87998 13.3121 6.77465 13.3021 6.66665H10.0001C9.46967 6.66665 8.96096 6.45594 8.58589 6.08087C8.21081 5.70579 8.0001 5.19708 8.0001 4.66665V1.36465C7.8921 1.35465 7.7861 1.33332 7.67677 1.33332H4.66677C4.13633 1.33332 3.62763 1.54403 3.25255 1.9191C2.87748 2.29418 2.66677 2.80289 2.66677 3.33332V12.6667C2.66677 13.1971 2.87748 13.7058 3.25255 14.0809C3.62763 14.4559 4.13633 14.6667 4.66677 14.6667H11.3334C11.8639 14.6667 12.3726 14.4559 12.7476 14.0809C13.1227 13.7058 13.3334 13.1971 13.3334 12.6667V6.98998Z" fill="white"/>
</g>
<defs>
<clipPath id="clip0_11253_5">
<rect width="16" height="16" fill="white"/>
</clipPath>
</defs>
</svg>
