<svg width="16" height="16" viewBox="0 0 16 16" fill="none" xmlns="http://www.w3.org/2000/svg">
<g clip-path="url(#clip0_11253_15)">
<path d="M15.6901 9.81699C15.552 9.64931 15.3749 9.51809 15.1743 9.43486C14.9736 9.35163 14.7556 9.31894 14.5394 9.33965C13.3779 9.43148 12.2504 9.77609 11.236 10.3493C10.2215 10.9226 9.34468 11.7106 8.66675 12.6583V9.27365C9.59778 9.11547 10.4429 8.6333 11.0529 7.91234C11.6628 7.19138 11.9983 6.27802 12.0001 5.33365C12.0001 3.47165 10.7048 1.89899 9.43742 0.60632C9.05318 0.230884 8.5373 0.0206909 8.00009 0.0206909C7.46288 0.0206909 6.94699 0.230884 6.56275 0.60632C5.29542 1.89899 4.00009 3.47165 4.00009 5.33365C4.00184 6.27802 4.33733 7.19138 4.94729 7.91234C5.55724 8.6333 6.40239 9.11547 7.33342 9.27365V12.6583C6.6555 11.7106 5.77863 10.9226 4.7642 10.3493C3.74978 9.77609 2.62232 9.43148 1.46075 9.33965C1.24455 9.31906 1.02659 9.35181 0.825977 9.43503C0.625367 9.51824 0.44823 9.6494 0.310087 9.81699C0.172829 9.97995 0.07726 10.1739 0.031617 10.382C-0.014026 10.5901 -0.00837357 10.8062 0.048087 11.0117C1.40742 15.9037 7.72742 16.0003 7.99609 16.0003H8.00409C8.27075 16.0003 14.5934 15.9037 15.9528 11.0117C16.0089 10.8061 16.0143 10.5901 15.9686 10.382C15.9228 10.1739 15.8273 9.98001 15.6901 9.81699ZM5.33342 5.33365C5.33342 3.56432 7.54542 1.52099 7.55875 1.50965C7.31542 2.13365 5.79542 5.93365 7.33342 6.00032C7.51023 6.00032 7.6798 5.93008 7.80482 5.80506C7.92985 5.68003 8.00009 5.51046 8.00009 5.33365C8.05041 4.14794 8.33523 2.98396 8.83809 1.90899C9.79209 2.92899 10.6668 4.10299 10.6668 5.33365C10.6668 6.0409 10.3858 6.71917 9.88571 7.21927C9.38561 7.71937 8.70733 8.00032 8.00009 8.00032C7.29284 8.00032 6.61457 7.71937 6.11447 7.21927C5.61437 6.71917 5.33342 6.0409 5.33342 5.33365ZM1.33742 10.667C2.53858 10.7643 3.69276 11.1769 4.68332 11.8633C5.67388 12.5496 6.4657 13.4852 6.97875 14.5757C5.31409 14.345 2.13342 13.5337 1.33742 10.667ZM9.03009 14.5743C9.54732 13.487 10.3394 12.5534 11.3279 11.8659C12.3165 11.1784 13.4674 10.7608 14.6668 10.6543C13.8708 13.5223 10.6974 14.341 9.03009 14.5743Z" fill="white"/>
</g>
<defs>
<clipPath id="clip0_11253_15">
<rect width="16" height="16" fill="white"/>
</clipPath>
</defs>
</svg>
