<svg width="16" height="16" viewBox="0 0 16 16" fill="none" xmlns="http://www.w3.org/2000/svg">
<path d="M11.9999 6.04249C12 5.77433 11.9471 5.5088 11.8441 5.2612C11.7411 5.01361 11.5902 4.78883 11.3999 4.59982C11.0107 4.22839 10.4933 4.02116 9.95527 4.02116C9.41723 4.02116 8.89986 4.22839 8.5106 4.59982L0.599935 12.5125C0.238881 12.8996 0.042229 13.4118 0.0514256 13.9411C0.0606221 14.4704 0.274948 14.9755 0.649234 15.3499C1.02352 15.7242 1.52853 15.9387 2.05783 15.948C2.58713 15.9573 3.09937 15.7608 3.4866 15.3998L11.3999 7.48716C11.5905 7.29796 11.7416 7.07287 11.8446 6.8249C11.9476 6.57693 12.0004 6.311 11.9999 6.04249ZM2.54393 14.4585C2.40917 14.587 2.23012 14.6586 2.04393 14.6586C1.85775 14.6586 1.6787 14.587 1.54393 14.4585C1.41154 14.3258 1.3372 14.146 1.3372 13.9585C1.3372 13.771 1.41154 13.5912 1.54393 13.4585L6.72327 8.27849L7.7266 9.28183L2.54393 14.4585ZM10.4586 6.54382L8.6666 8.33649L7.6666 7.33316L9.45927 5.54116C9.52317 5.46815 9.60139 5.40905 9.68907 5.36751C9.77674 5.32597 9.87202 5.30287 9.96899 5.29965C10.066 5.29643 10.1626 5.31316 10.2528 5.3488C10.343 5.38443 10.425 5.43822 10.4936 5.50683C10.5622 5.57543 10.616 5.65739 10.6516 5.74763C10.6873 5.83787 10.704 5.93447 10.7008 6.03144C10.6976 6.12841 10.6745 6.22368 10.6329 6.31136C10.5914 6.39904 10.5323 6.47725 10.4593 6.54116L10.4586 6.54382ZM3.24193 1.90316L4.27527 1.60849L4.56993 0.575158C4.6174 0.409348 4.71757 0.263503 4.85529 0.159678C4.99301 0.0558534 5.1608 -0.000305176 5.33327 -0.000305176C5.50574 -0.000305176 5.67352 0.0558534 5.81124 0.159678C5.94896 0.263503 6.04913 0.409348 6.0966 0.575158L6.39127 1.60849L7.4246 1.90316C7.59041 1.95063 7.73626 2.0508 7.84008 2.18852C7.94391 2.32624 8.00006 2.49402 8.00006 2.66649C8.00006 2.83896 7.94391 3.00675 7.84008 3.14447C7.73626 3.28219 7.59041 3.38235 7.4246 3.42982L6.39127 3.72449L6.0966 4.75782C6.04913 4.92364 5.94896 5.06948 5.81124 5.1733C5.67352 5.27713 5.50574 5.33329 5.33327 5.33329C5.1608 5.33329 4.99301 5.27713 4.85529 5.1733C4.71757 5.06948 4.6174 4.92364 4.56993 4.75782L4.27527 3.72449L3.24193 3.42982C3.07612 3.38235 2.93028 3.28219 2.82645 3.14447C2.72263 3.00675 2.66647 2.83896 2.66647 2.66649C2.66647 2.49402 2.72263 2.32624 2.82645 2.18852C2.93028 2.0508 3.07612 1.95063 3.24193 1.90316ZM15.4246 11.4298L14.3913 11.7245L14.0966 12.7578C14.0491 12.9236 13.949 13.0695 13.8112 13.1733C13.6735 13.2771 13.5057 13.3333 13.3333 13.3333C13.1608 13.3333 12.993 13.2771 12.8553 13.1733C12.7176 13.0695 12.6174 12.9236 12.5699 12.7578L12.2753 11.7245L11.2419 11.4298C11.0761 11.3824 10.9303 11.2822 10.8265 11.1445C10.7226 11.0067 10.6665 10.839 10.6665 10.6665C10.6665 10.494 10.7226 10.3262 10.8265 10.1885C10.9303 10.0508 11.0761 9.95063 11.2419 9.90316L12.2753 9.60849L12.5699 8.57516C12.6174 8.40935 12.7176 8.2635 12.8553 8.15968C12.993 8.05585 13.1608 7.99969 13.3333 7.99969C13.5057 7.99969 13.6735 8.05585 13.8112 8.15968C13.949 8.2635 14.0491 8.40935 14.0966 8.57516L14.3913 9.60849L15.4246 9.90316C15.5904 9.95063 15.7363 10.0508 15.8401 10.1885C15.9439 10.3262 16.0001 10.494 16.0001 10.6665C16.0001 10.839 15.9439 11.0067 15.8401 11.1445C15.7363 11.2822 15.5904 11.3824 15.4246 11.4298ZM11.8366 1.66649L12.7406 1.40849L12.9999 0.503158C13.0421 0.359036 13.1299 0.232473 13.2501 0.142433C13.3703 0.0523942 13.5164 0.00372822 13.6666 0.00372822C13.8168 0.00372822 13.9629 0.0523942 14.0831 0.142433C14.2033 0.232473 14.2911 0.359036 14.3333 0.503158L14.5913 1.40716L15.4953 1.66516C15.6394 1.70737 15.766 1.79514 15.856 1.91533C15.946 2.03552 15.9947 2.18165 15.9947 2.33182C15.9947 2.482 15.946 2.62813 15.856 2.74832C15.766 2.86851 15.6394 2.95628 15.4953 2.99849L14.5913 3.25649L14.3333 4.16249C14.2911 4.30661 14.2033 4.43318 14.0831 4.52322C13.9629 4.61326 13.8168 4.66192 13.6666 4.66192C13.5164 4.66192 13.3703 4.61326 13.2501 4.52322C13.1299 4.43318 13.0421 4.30661 12.9999 4.16249L12.7419 3.25916L11.8366 2.99982C11.6925 2.95762 11.5659 2.86984 11.4759 2.74965C11.3858 2.62946 11.3372 2.48333 11.3372 2.33316C11.3372 2.18298 11.3858 2.03685 11.4759 1.91666C11.5659 1.79647 11.6925 1.7087 11.8366 1.66649Z" fill="white"/>
</svg>
