<svg width="404" height="553" fill="none" xmlns="http://www.w3.org/2000/svg"><path d="M370.209 181.868c49.942 49.942 84.541 105.735 100.124 155.548 15.591 49.839 12.111 93.549-13.857 119.517-25.967 25.967-69.678 29.447-119.516 13.857-49.814-15.583-105.607-50.182-155.548-100.124C131.47 320.724 96.87 264.931 81.287 215.118c-15.59-49.839-12.11-93.549 13.857-119.517 25.968-25.967 69.678-29.447 119.517-13.857 49.813 15.583 105.606 50.182 155.548 100.124Z" stroke="#737373"/><path d="M370.17 370.17c-49.941 49.942-105.734 84.542-155.548 100.124-49.838 15.591-93.549 12.111-119.516-13.857-25.968-25.967-29.448-69.677-13.857-119.516 15.583-49.813 50.182-105.606 100.124-155.548 49.942-49.942 105.735-84.541 155.548-100.124 49.839-15.59 93.549-12.11 119.516 13.857 25.968 25.967 29.448 69.677 13.857 119.516-15.582 49.814-50.182 105.607-100.124 155.548Z" stroke="#737373"/></svg>