<svg width="116" height="345" fill="none" xmlns="http://www.w3.org/2000/svg"><path d="M232.099 113.792c31.195 31.195 52.799 66.038 62.527 97.134 9.736 31.123 7.541 58.35-8.614 74.504-16.154 16.155-43.381 18.35-74.504 8.614-31.096-9.728-65.939-31.332-97.134-62.527-31.194-31.194-52.799-66.037-62.526-97.134-9.736-31.122-7.541-58.35 8.613-74.504 16.155-16.154 43.382-18.35 74.504-8.613 31.097 9.727 65.94 31.332 97.134 62.526Z" stroke="#737373"/><path d="M232.075 231.208c-31.194 31.194-66.037 52.799-97.134 62.526-31.122 9.736-58.35 7.541-74.504-8.613-16.154-16.155-18.35-43.382-8.614-74.504 9.728-31.097 31.333-65.94 62.527-97.134 31.195-31.195 66.037-52.8 97.134-62.527 31.123-9.736 58.35-7.54 74.504 8.614 16.155 16.154 18.35 43.381 8.614 74.504-9.728 31.096-31.332 65.939-62.527 97.134Z" stroke="#737373"/></svg>