<svg width="35" height="34" viewBox="0 0 35 34" fill="none" xmlns="http://www.w3.org/2000/svg">
<g clip-path="url(#clip0_7_85)">
<path d="M17.3221 8.63383C17.3229 8.89802 17.4282 9.15116 17.615 9.33797C17.8018 9.52477 18.055 9.63007 18.3191 9.63085L23.4245 9.60257L8.98532 24.0417C8.79778 24.2292 8.69242 24.4836 8.69242 24.7488C8.69242 25.014 8.79778 25.2684 8.98531 25.4559C9.17285 25.6435 9.4272 25.7488 9.69242 25.7488C9.95764 25.7488 10.212 25.6435 10.3995 25.4559L24.8316 11.0239L24.8316 16.1433C24.8311 16.2753 24.8567 16.4061 24.9069 16.5282C24.9572 16.6503 25.0311 16.7612 25.1245 16.8545C25.2178 16.9479 25.3287 17.0218 25.4508 17.0721C25.5729 17.1223 25.7037 17.1479 25.8357 17.1474C26.0999 17.1466 26.353 17.0413 26.5398 16.8545C26.7266 16.6677 26.8319 16.4146 26.8327 16.1504L26.8398 10.6137C26.8393 9.81872 26.5233 9.05643 25.9611 8.49427C25.3989 7.93212 24.6366 7.61609 23.8416 7.6156L18.3191 7.63681C18.055 7.6376 17.8018 7.74289 17.615 7.9297C17.4282 8.11651 17.3229 8.36965 17.3221 8.63383Z" fill="#374957"/>
</g>
<defs>
<clipPath id="clip0_7_85">
<rect width="24" height="24" fill="white" transform="translate(17.4706) rotate(45)"/>
</clipPath>
</defs>
</svg>
