<svg width="56" height="56" fill="none" xmlns="http://www.w3.org/2000/svg"><rect x="1" y="1" width="54" height="54" rx="19" stroke="#fff" stroke-width="2"/><g clip-path="url(#a)" fill="#fff"><path d="M20.667 24h14.666a.667.667 0 1 0 0-1.333H20.667a.667.667 0 1 0 0 1.333Zm14.666 2H26a.667.667 0 1 0 0 1.333h9.333a.667.667 0 1 0 0-1.333Zm0 6.667H26A.667.667 0 0 0 26 34h9.333a.666.666 0 1 0 0-1.333Zm0-3.334H20.667a.667.667 0 0 0 0 1.334h14.666a.667.667 0 0 0 0-1.334Z"/></g><defs><clipPath id="a"><path fill="#fff" transform="translate(20 20)" d="M0 0h16v16H0z"/></clipPath></defs></svg>