<svg width="16" height="16" fill="none" xmlns="http://www.w3.org/2000/svg"><g clip-path="url(#a)"><path d="M9.667 4.667A2.343 2.343 0 0 0 8 5.327a2.378 2.378 0 0 0-4 1.806c0 2.17 3.25 4.49 3.62 4.748a.667.667 0 0 0 .76 0C8.75 11.624 12 9.304 12 7.133a2.405 2.405 0 0 0-2.333-2.466ZM8 10.507c-1.16-.886-2.667-2.372-2.667-3.374-.05-1.337 1.942-1.6 2-.164v.364a.667.667 0 0 0 1.334 0V6.97c.058-1.434 2.05-1.173 2 .164 0 1-1.506 2.488-2.667 3.375ZM8.557.02A8 8 0 0 0 .02 8.569C.313 12.805 4.055 16 8.722 16h3.944A3.337 3.337 0 0 0 16 12.668v-4.44A8.14 8.14 0 0 0 8.557.019Zm6.11 12.648a2 2 0 0 1-2 2H8.721c-4.023 0-7.122-2.6-7.372-6.19A6.667 6.667 0 0 1 8.467 1.35a6.8 6.8 0 0 1 6.2 6.878v4.44Z" fill="#fff"/></g><defs><clipPath id="a"><path fill="#fff" d="M0 0h16v16H0z"/></clipPath></defs></svg>