<svg width="16" height="16" fill="none" xmlns="http://www.w3.org/2000/svg"><g clip-path="url(#a)"><path d="M11.333 9.333a.667.667 0 0 1-.666.667H5.333a.667.667 0 1 1 0-1.333h5.334a.667.667 0 0 1 .666.666Zm-2.666 2H5.333a.667.667 0 0 0 0 1.334h3.334a.667.667 0 0 0 0-1.334Zm6-4.343v5.677A3.337 3.337 0 0 1 11.333 16H4.667a3.338 3.338 0 0 1-3.334-3.333V3.333A3.337 3.337 0 0 1 4.667 0h3.01a4.639 4.639 0 0 1 3.3 1.367l2.322 2.324a4.633 4.633 0 0 1 1.368 3.299Zm-4.633-4.68a3.34 3.34 0 0 0-.7-.52v2.877a.667.667 0 0 0 .666.666h2.877a3.323 3.323 0 0 0-.52-.7L10.034 2.31Zm3.3 4.68c0-.11-.022-.215-.032-.323H10a2 2 0 0 1-2-2V1.365c-.108-.01-.214-.032-.323-.032h-3.01a2 2 0 0 0-2 2v9.334a2 2 0 0 0 2 2h6.666a2 2 0 0 0 2-2V6.99Z" fill="#fff"/></g><defs><clipPath id="a"><path fill="#fff" d="M0 0h16v16H0z"/></clipPath></defs></svg>