<svg width="24" height="24" fill="none" xmlns="http://www.w3.org/2000/svg"><g clip-path="url(#a)"><path d="M18 9.064a3.05 3.05 0 0 0-.9-2.164 3.14 3.14 0 0 0-4.334 0L.9 18.769a3.064 3.064 0 0 0 4.33 4.33L17.1 11.232a3.045 3.045 0 0 0 .9-2.167ZM3.816 21.688a1.087 1.087 0 0 1-1.5 0 1.062 1.062 0 0 1 0-1.5l7.769-7.77 1.505 1.505-7.774 7.765ZM15.688 9.816 13 12.505 11.5 11l2.689-2.688a1.063 1.063 0 1 1 1.5 1.5l-.001.004ZM4.863 2.855l1.55-.442.442-1.55a1.19 1.19 0 0 1 2.29 0l.442 1.55 1.55.442a1.19 1.19 0 0 1 0 2.29l-1.55.442-.442 1.55a1.191 1.191 0 0 1-2.29 0l-.442-1.55-1.55-.442a1.191 1.191 0 0 1 0-2.29Zm18.274 14.29-1.55.442-.442 1.55a1.191 1.191 0 0 1-2.29 0l-.442-1.55-1.55-.442a1.19 1.19 0 0 1 0-2.29l1.55-.442.442-1.55a1.191 1.191 0 0 1 2.29 0l.442 1.55 1.55.442a1.19 1.19 0 0 1 0 2.29ZM17.755 2.5l1.356-.387L19.5.755a1.042 1.042 0 0 1 2 0l.387 1.356 1.356.387a1.042 1.042 0 0 1 0 2l-1.356.387-.387 1.359a1.042 1.042 0 0 1-2 0l-.387-1.355-1.358-.39a1.042 1.042 0 0 1 0-2Z" fill="#374957"/></g><defs><clipPath id="a"><path fill="#fff" d="M0 0h24v24H0z"/></clipPath></defs></svg>