<svg width="24" height="24" fill="none" xmlns="http://www.w3.org/2000/svg"><g clip-path="url(#a)"><path d="M23 5h-2.586l2.293-2.293a1 1 0 0 0-1.414-1.414L19 3.586V1a1 1 0 1 0-2 0v4.456a10.137 10.137 0 0 0-2.854-2.126 3.765 3.765 0 0 0-4.423 1.048C7.965 6.136 3.065 15.121.3 20.319A2.511 2.511 0 0 0 3.68 23.7c5.2-2.764 14.184-7.665 15.942-9.423a3.766 3.766 0 0 0 1.049-4.422A10.166 10.166 0 0 0 18.544 7H23a1 1 0 1 0 0-2Zm-4.792 7.863a16.072 16.072 0 0 1-2.293 1.637l-2.208-2.207a1 1 0 0 0-1.414 1.414l1.87 1.869c-2.746 1.643-6.69 3.842-11.421 6.358a.5.5 0 0 1-.676-.676 359.744 359.744 0 0 1 4.16-7.618l2.067 2.067a1 1 0 0 0 1.414-1.414L7.25 11.837c1.09-1.889 2.006-3.4 2.709-4.463l2.333 2.333a1 1 0 0 0 1.414-1.414L11.174 5.76c.847-.789 1.366-.922 2.183-.592a11.622 11.622 0 0 1 3.008 2.466 11.63 11.63 0 0 1 2.467 3.009c.249.58.346 1.251-.624 2.22Z" fill="#374957"/></g><defs><clipPath id="a"><path fill="#fff" d="M0 0h24v24H0z"/></clipPath></defs></svg>