<svg width="16" height="16" fill="none" xmlns="http://www.w3.org/2000/svg"><path d="M12 6.042a2.032 2.032 0 0 0-.6-1.442 2.092 2.092 0 0 0-2.89 0L.6 12.512A2.042 2.042 0 0 0 3.487 15.4L11.4 7.487a2.03 2.03 0 0 0 .6-1.445Zm-9.456 8.416a.724.724 0 0 1-1 0 .708.708 0 0 1 0-1l5.18-5.18 1.003 1.004-5.183 5.177Zm7.915-7.914L8.667 8.336l-1-1.003 1.792-1.792a.708.708 0 1 1 1 1v.003Zm-7.217-4.64 1.033-.296L4.57.575a.794.794 0 0 1 1.527 0l.294 1.033 1.034.295a.794.794 0 0 1 0 1.527l-1.034.294-.294 1.034a.794.794 0 0 1-1.527 0l-.295-1.034-1.033-.294a.794.794 0 0 1 0-1.527Zm12.183 9.526-1.034.295-.294 1.033a.794.794 0 0 1-1.527 0l-.295-1.033-1.033-.295a.793.793 0 0 1 0-1.527l1.033-.295.295-1.033a.794.794 0 0 1 1.527 0l.294 1.033 1.034.295a.794.794 0 0 1 0 1.527Zm-3.588-9.764.904-.258L13 .503a.695.695 0 0 1 1.333 0l.258.904.904.258a.695.695 0 0 1 0 1.333l-.904.258-.258.906a.695.695 0 0 1-1.333 0l-.258-.903-.905-.26a.694.694 0 0 1 0-1.333Z" fill="#fff"/></svg>