<svg width="108" height="108" viewBox="0 0 108 108" fill="none" xmlns="http://www.w3.org/2000/svg">
<path d="M54 0L54.0105 53.9469L74.665 4.11049L54.03 53.9551L92.1837 15.8163L54.0449 53.97L103.889 33.335L54.0531 53.9895L108 54L54.0531 54.0105L103.889 74.665L54.0449 54.03L92.1837 92.1837L54.03 54.0449L74.665 103.889L54.0105 54.0531L54 108L53.9895 54.0531L33.335 103.889L53.97 54.0449L15.8163 92.1837L53.9551 54.03L4.11049 74.665L53.9469 54.0105L0 54L53.9469 53.9895L4.11049 33.335L53.9551 53.97L15.8163 15.8163L53.97 53.9551L33.335 4.11049L53.9895 53.9469L54 0Z" stroke="white" stroke-width="4"/>
</svg>
