<svg width="108" height="108" fill="none" xmlns="http://www.w3.org/2000/svg"><path d="m54 0 .01 53.947L74.666 4.11 54.03 53.955l38.154-38.139-38.14 38.154 49.845-20.635-49.836 20.654L108 54l-53.947.01 49.836 20.655L54.045 54.03l38.139 38.154-38.154-38.14 20.635 49.845L54.01 54.053 54 108l-.01-53.947-20.655 49.836L53.97 54.045 15.816 92.184l38.14-38.154L4.11 74.665 53.947 54.01 0 54l53.947-.01L4.11 33.334 53.955 53.97 15.816 15.816l38.154 38.14L33.335 4.11l20.654 49.837L54 0Z" stroke="#fff" stroke-width="4"/></svg>